<svg xmlns="http://www.w3.org/2000/svg" width="26.454" height="19.746" viewBox="0 0 26.454 19.746">
    <defs>
        <linearGradient id="linear-gradient" x1=".5" x2=".5" y2="1" gradientUnits="objectBoundingBox">
            <stop offset=".067" stop-color="#e83866"/>
            <stop offset=".801" stop-color="#e57a3c"/>
        </linearGradient>
        <style>
            .cls-1{fill:url(#linear-gradient)}
        </style>
    </defs>
    <g id="enter" transform="rotate(-90 9.873 9.873)">
        <g id="Group_1373" data-name="Group 1373">
            <g id="Group_1372" data-name="Group 1372">
                <path id="Path_1053" d="M14.659 5.565a.918.918 0 0 0 .918-.918v-2.38A2.283 2.283 0 0 0 13.285 0H2.292A2.283 2.283 0 0 0 0 2.267v21.92a2.283 2.283 0 0 0 2.292 2.267h10.993a2.283 2.283 0 0 0 2.292-2.267v-2.38a.918.918 0 0 0-1.837 0v2.379a.444.444 0 0 1-.456.431H2.292a.444.444 0 0 1-.456-.431V2.267a.444.444 0 0 1 .456-.431h10.993a.444.444 0 0 1 .456.431v2.38a.918.918 0 0 0 .918.918z" class="cls-1" data-name="Path 1053"/>
            </g>
        </g>
        <g id="Group_1375" data-name="Group 1375" transform="translate(6.87 7.542)">
            <g id="Group_1374" data-name="Group 1374">
                <path id="Path_1054" d="M11.957 4.767H3.176l3.272-3.191A.918.918 0 0 0 5.165.261L.277 5.027a.918.918 0 0 0 0 1.315l4.888 4.767a.918.918 0 0 0 1.283-1.315L3.176 6.6h8.781a.918.918 0 0 0 0-1.837z" class="cls-1" data-name="Path 1054"/>
            </g>
        </g>
    </g>
</svg>
